<?xml version="1.0" standalone="no"?>
<!DOCTYPE svg PUBLIC "-//W3C//DTD SVG 20010904//EN"
 "http://www.w3.org/TR/2001/REC-SVG-20010904/DTD/svg10.dtd">
<svg version="1.0" xmlns="http://www.w3.org/2000/svg"
 width="612.000000pt" height="391.000000pt" viewBox="0 0 612.000000 391.000000"
 preserveAspectRatio="xMidYMid meet">

<g transform="translate(0.000000,391.000000) scale(0.100000,-0.100000)"
fill="#000000" stroke="none">
<path d="M93 3890 l-23 -9 0 -1926 0 -1925 26 -10 c14 -6 163 -10 348 -10
l323 0 13 24 c7 14 31 40 52 58 22 18 79 72 127 119 47 47 94 88 104 92 9 3
17 11 17 16 0 12 126 141 138 141 4 1 24 24 44 53 21 29 54 66 75 82 20 17 50
46 67 65 59 67 128 130 142 130 8 0 14 5 14 11 0 22 42 69 61 69 16 0 19 7 19
44 0 25 -6 48 -14 55 -10 9 -68 12 -193 10 l-178 -2 0 977 0 977 313 0 c172 0
318 -4 325 -8 25 -16 112 -43 139 -43 15 0 28 -3 28 -7 0 -5 19 -17 42 -28 25
-12 59 -43 87 -79 25 -32 55 -69 66 -81 62 -66 100 -150 112 -245 2 -19 8 -44
14 -55 5 -11 10 -164 12 -340 l2 -320 43 -3 c35 -3 47 1 63 20 65 77 85 97 97
98 6 0 12 3 12 8 0 11 87 102 99 102 6 0 16 10 22 23 15 27 291 302 319 317
11 6 20 17 20 25 0 18 102 121 128 129 12 4 24 16 27 27 9 27 187 205 215 214
21 7 22 11 17 74 -4 58 -27 126 -47 141 -4 3 -10 22 -14 43 -4 21 -16 47 -27
58 -10 10 -19 26 -19 34 0 23 -34 84 -47 85 -7 0 -13 10 -13 23 0 29 -28 74
-73 117 -21 19 -37 39 -37 45 -1 13 -107 123 -189 195 -34 30 -72 64 -84 75
-46 43 -122 95 -138 95 -10 0 -29 11 -43 25 -13 13 -37 27 -53 30 -15 4 -36
10 -45 16 -44 23 -120 47 -138 42 -12 -3 -22 1 -26 11 -4 10 -18 16 -38 16
-18 0 -77 7 -132 15 -54 8 -125 15 -156 15 -31 0 -59 4 -62 9 -4 5 -24 12 -46
16 -25 4 -40 12 -40 21 0 12 -136 14 -937 13 -535 0 -948 -4 -960 -9z"/>
<path d="M4942 3890 l-23 -10 2 -1035 c1 -570 -1 -1038 -4 -1042 -14 -14 -65
23 -80 58 -9 21 -25 40 -37 44 -11 3 -20 12 -20 20 0 24 -75 144 -92 149 -10
2 -18 12 -18 23 0 10 -20 43 -45 73 -43 53 -89 119 -169 243 -21 32 -44 61
-52 64 -8 3 -23 24 -34 48 -10 23 -34 57 -52 76 -18 19 -37 41 -43 51 -5 9
-24 41 -42 70 -64 107 -24 132 -417 -261 -257 -257 -344 -350 -332 -354 9 -4
16 -16 16 -27 0 -12 7 -20 18 -20 32 -1 99 -75 152 -170 65 -114 158 -246 317
-448 30 -38 53 -77 53 -90 0 -13 13 -36 29 -51 15 -14 31 -36 35 -47 4 -12 17
-34 30 -49 14 -16 30 -40 38 -54 7 -14 19 -30 25 -34 7 -4 13 -16 13 -27 0
-10 10 -27 23 -37 27 -21 87 -106 87 -123 0 -17 42 -90 52 -90 16 0 82 -83
124 -157 24 -42 44 -79 44 -82 0 -3 18 -32 40 -65 22 -32 40 -63 40 -67 0 -5
7 -9 15 -9 8 0 15 -8 15 -18 0 -9 20 -40 44 -67 40 -46 146 -218 146 -237 0
-4 7 -8 15 -8 8 0 15 -8 15 -17 0 -10 7 -36 14 -58 l14 -40 540 0 c297 0 544
4 549 8 11 11 11 3853 0 3864 -12 11 -1016 14 -1045 3z"/>
<path d="M2917 1562 l-527 -527 0 -506 0 -507 23 -6 c38 -10 994 -7 1021 4
l26 10 0 1024 c0 564 -4 1027 -8 1030 -5 3 -245 -232 -535 -522z"/>
</g>
</svg>
